<svg id="Layer_1" data-name="Layer 1" xmlns="http://www.w3.org/2000/svg" viewBox="0 0 617.2 609.41"><defs><style>.cls-1{fill:none;stroke:#000;stroke-miterlimit:10;}.cls-2,.cls-3{isolation:isolate;font-size:276.28px;font-family:BrushScriptMT, Brush Script MT;}.cls-2{fill:#fff;}.cls-3{fill:#fbb03b;}</style></defs><title>creydesigns2</title><path d="M1345,460.21c0,22.17-45.49,38.84-50,59.55-4.89,21.44,28.82,56.26,19.57,75.68-9.42,19.61-57.45,14.66-70.68,31.52-13.41,16.86,2,63.22-14.86,76.78-16.67,13.37-57.81-11.91-77.39-2.38-19,9.34-25.19,57.72-46.21,62.67-20.48,4.76-46.58-36.29-68.51-36.29s-48,40.87-68.51,36.29c-21.2-4.95-27.18-53.33-46.21-62.67-19.39-9.53-60.72,15.94-77.39,2.38S843.34,644,829.93,627c-13.23-16.86-61.44-11.91-70.68-31.52-9.25-19.24,24.46-54.24,19.57-75.68-4.71-20.71-50-37.38-50-59.55s45.49-38.85,50-59.56c4.89-21.44-28.82-56.26-19.57-75.68,9.42-19.61,57.45-14.66,70.68-31.52,13.41-16.86-2-63.22,14.86-76.78,16.67-13.37,57.81,11.91,77.39,2.38,19-9.34,25.19-57.72,46.21-62.67,20.48-4.76,46.58,36.29,68.51,36.29s48-40.87,68.51-36.29c21.2,5,27.18,53.33,46.21,62.67,19.39,9.53,60.72-15.94,77.39-2.38s1.45,59.74,14.86,76.78c13.23,16.86,61.44,11.91,70.68,31.52,9.25,19.24-24.46,54.24-19.57,75.68C1299.69,421.36,1345,438,1345,460.21Z" transform="translate(-728.3 -155.5)"/><path class="cls-1" d="M1345,460.21c0,22.17-45.49,38.84-50,59.55-4.89,21.44,28.82,56.26,19.57,75.68-9.42,19.61-57.45,14.66-70.68,31.52-13.41,16.86,2,63.22-14.86,76.78-16.67,13.37-57.81-11.91-77.39-2.38-19,9.34-25.19,57.72-46.21,62.67-20.48,4.76-46.58-36.29-68.51-36.29s-48,40.87-68.51,36.29c-21.2-4.95-27.18-53.33-46.21-62.67-19.39-9.53-60.72,15.94-77.39,2.38S843.34,644,829.93,627c-13.23-16.86-61.44-11.91-70.68-31.52-9.25-19.24,24.46-54.24,19.57-75.68-4.71-20.71-50-37.38-50-59.55s45.49-38.85,50-59.56c4.89-21.44-28.82-56.26-19.57-75.68,9.42-19.61,57.45-14.66,70.68-31.52,13.41-16.86-2-63.22,14.86-76.78,16.67-13.37,57.81,11.91,77.39,2.38,19-9.34,25.19-57.72,46.21-62.67,20.48-4.76,46.58,36.29,68.51,36.29s48-40.87,68.51-36.29c21.2,5,27.18,53.33,46.21,62.67,19.39,9.53,60.72-15.94,77.39-2.38s1.45,59.74,14.86,76.78c13.23,16.86,61.44,11.91,70.68,31.52,9.25,19.24-24.46,54.24-19.57,75.68C1299.69,421.36,1345,438,1345,460.21Z" transform="translate(-728.3 -155.5)"/><text class="cls-2" transform="translate(120.59 378.74) scale(0.98 1)">CR</text><text class="cls-3" transform="translate(118.19 376.5) scale(0.98 1)">CR</text></svg>